<svg width="66" height="65" viewBox="0 0 66 65" fill="none" xmlns="http://www.w3.org/2000/svg">
<path d="M32.998 1C50.6845 1 64.9961 15.1173 64.9961 32.5C64.9961 49.8827 50.6845 64 32.998 64C15.3116 64 1 49.8827 1 32.5C1 15.1173 15.3116 1.00002 32.998 1Z" stroke="#2E4FD7" stroke-width="2" stroke-linejoin="round"/>
<rect opacity="0.01" x="50.7664" y="50" width="35.5364" height="35" transform="rotate(-180 50.7664 50)" fill="#2E4FD7"/>
<path d="M27.0753 38.6396L27.0753 26.3604C27.0739 25.371 27.65 24.4689 28.556 24.0417C29.6307 23.5417 30.9008 23.6889 31.8283 24.4209L39.3798 30.5604C39.9509 31.048 40.2791 31.7557 40.2791 32.5C40.2791 33.2444 39.9509 33.9521 39.3798 34.4396L31.8283 40.5792C30.9008 41.3112 29.6307 41.4583 28.556 40.9584C27.65 40.5311 27.0739 39.629 27.0753 38.6396Z" fill="#2E4FD7"/>
</svg>
