<svg width="104" height="19" viewBox="0 0 104 19" fill="none" xmlns="http://www.w3.org/2000/svg">
<path fill-rule="evenodd" clip-rule="evenodd" d="M35.2265 0.382052H29.6493V7.63022H23.8409V0.382052H18.2614V18.6192H23.8409V11.4447H29.6493V18.6192H35.2265V0.382052ZM54.6376 14.9558V0.382052H49.0578V18.6192H59.1462L59.9855 14.9558H54.6376ZM39.3537 18.6192H44.9319V0.382052H39.3537V18.6192ZM61.9735 18.6192H67.5507V0.382052H61.9735V18.6192ZM95.0596 5.0352C95.0596 4.04421 96.054 3.58507 97.6578 3.58507C99.4153 3.58507 101.327 3.96711 102.624 4.50335L102.168 0.534359C100.715 0.229727 99.4153 0 97.0472 0C92.5386 0 89.4823 1.77483 89.4823 5.4956C89.4823 11.9029 98.1959 10.6073 98.1959 13.5828C98.1959 14.7264 97.3525 15.3353 95.2886 15.3353C93.4579 15.3353 90.6272 14.7264 88.948 13.8874L89.5599 18.0861C91.2401 18.6954 93.5321 19 95.3671 19C100.027 19 103.849 17.4734 103.849 12.8939C103.849 6.79153 95.0596 7.9361 95.0596 5.0352ZM79.3214 14.2694C84.5145 14.2694 87.801 11.597 87.801 6.94385C87.801 1.83124 84.2868 0 78.5544 0C76.3393 0 73.6632 0.152316 71.7528 0.382043V18.6192H77.3338V14.2694H79.3214ZM82.2976 7.02001C82.2976 9.3853 81.1543 10.9877 78.2494 10.9877H77.3338V3.45375C77.6577 3.43495 77.963 3.43495 78.2494 3.43495C80.9994 3.43495 82.2976 4.73088 82.2976 7.02001ZM7.56489 14.2694C12.7605 14.2694 16.0457 11.597 16.0457 6.94385C16.0457 1.83124 12.5302 0 6.80067 0C4.58372 0 1.90913 0.152316 0 0.382043V18.6192H5.57692V14.2694H7.56489ZM10.5462 7.02001C10.5462 9.3853 9.39904 10.9877 6.49546 10.9877H5.57702V3.45375C5.90369 3.43495 6.209 3.43495 6.49546 3.43495C9.24419 3.43495 10.5462 4.73088 10.5462 7.02001Z" fill="#969696"/>
</svg>
